<?xml version="1.0" encoding="UTF-8"?>
<svg width="247px" height="266px" viewBox="0 0 247 266" version="1.1" xmlns="http://www.w3.org/2000/svg" xmlns:xlink="http://www.w3.org/1999/xlink">
    <!-- Generator: Sketch 40.1 (33804) - http://www.bohemiancoding.com/sketch -->
    <title>Diamond - simple-line-icons</title>
    <desc>Created with Sketch.</desc>
    <defs></defs>
    <g id="Homepage" stroke="none" stroke-width="1" fill="none" fill-rule="evenodd" opacity="0.65729944">
        <g id="Tablet-Portrait" transform="translate(-18.000000, -495.000000)" fill="#FFFFFF">
            <g id="What-we-do" transform="translate(-1.000000, 385.000000)">
                <g id="Service-1" transform="translate(0.000000, 88.000000)">
                    <path d="M264.075631,98.5532333 L230.409508,29.2660696 C229.447614,27.1900393 227.844482,25.4600401 225.600062,24.0760199 C223.355643,22.6919997 221.191414,22 219.10731,22 L141.675228,22 L141.554992,22 L141.434756,22 L141.31452,22 L141.194284,22 L65.2050359,22 C63.1209322,22 60.9567031,22.6919997 58.7122838,24.0760199 C56.4678644,25.4600401 54.8647317,27.1900393 53.9028377,29.2660696 L20.2367152,97.2557209 C19.2748212,99.3317511 18.874038,101.75375 19.0343537,104.52179 C19.1946694,107.289831 19.9160791,109.53883 21.1986044,111.268855 L136.62531,285.135521 C137.266573,286.000533 137.987982,286.649283 138.789561,287.081789 C139.591139,287.514295 140.392705,287.730545 141.194284,287.730545 C141.995862,287.730545 142.797429,287.514295 143.599007,287.081789 C144.400585,286.649283 145.121995,286.000533 145.763258,285.135521 L263.113742,112.82587 C264.235951,110.922842 264.917283,108.587343 265.157756,105.819303 C265.39823,103.051263 265.037525,100.629264 264.075631,98.5532333 L264.075631,98.5532333 Z M245.559264,96.7367159 L204.4385,96.7367159 L221.031089,45.6147262 L245.559264,96.7367159 Z M157.305928,38.6081591 L206.843223,38.6081591 L191.452995,86.097114 L157.305928,38.6081591 Z M179.669852,96.7367159 L108.249578,96.7367159 L141.915701,44.3172138 L179.669852,96.7367159 Z M94.542657,88.6921388 L79.1524295,38.6081591 L127.006418,38.6081591 L94.542657,88.6921388 Z M182.795992,113.344875 L141.434756,241.020098 L101.997298,113.344875 L182.795992,113.344875 Z M124.12075,237.646566 L41.3982779,113.344875 L85.885654,113.344875 L124.12075,237.646566 Z M199.148109,113.344875 L243.635485,113.344875 L158.748762,237.906068 L199.148109,113.344875 Z M64.2431467,43.2792038 L80.8357357,96.7367159 L38.0316657,96.7367159 L64.2431467,43.2792038 Z" id="Diamond---simple-line-icons"></path>
                </g>
            </g>
        </g>
    </g>
</svg>