<?xml version="1.0" encoding="UTF-8"?>
<svg width="338px" height="338px" viewBox="0 0 338 338" version="1.1" xmlns="http://www.w3.org/2000/svg" xmlns:xlink="http://www.w3.org/1999/xlink">
    <!-- Generator: Sketch 40.1 (33804) - http://www.bohemiancoding.com/sketch -->
    <title>layers - simple-line-icons</title>
    <desc>Created with Sketch.</desc>
    <defs></defs>
    <g id="Homepage" stroke="none" stroke-width="1" fill="none" fill-rule="evenodd" opacity="0.651527519">
        <g id="Tablet-Portrait" transform="translate(-14.000000, -683.000000)" fill="#FFFFFF">
            <g id="What-we-do" transform="translate(-1.000000, 385.000000)">
                <g id="Service-2" transform="translate(0.000000, 288.000000)">
                    <path d="M22.2456055,109.462402 L178.684814,194.762939 C179.563074,194.982504 180.38643,195.202066 181.154907,195.421631 C181.923384,195.641196 182.74674,195.750977 183.625,195.750977 C184.50326,195.750977 185.381506,195.696086 186.259766,195.586304 C187.138025,195.476521 187.906491,195.202069 188.565186,194.762939 L346.980469,109.462402 C348.517423,108.584143 349.779902,107.266773 350.767944,105.510254 C351.755986,103.753735 352.25,101.887461 352.25,99.911377 C352.25,97.9352929 351.755986,96.1239096 350.767944,94.4771729 C349.779902,92.8304361 348.407642,91.5679569 346.651123,90.6896973 L190.211914,11.3173828 C188.67496,10.4391232 187.083138,10 185.436401,10 C183.789665,10 182.197843,10.4391232 180.660889,11.3173828 L22.5749512,90.6896973 C20.818432,91.5679569 19.3912815,92.8304361 18.293457,94.4771729 C17.1956325,96.1239096 16.6467285,97.9352929 16.6467285,99.911377 C16.6467285,101.887461 17.1407421,103.753735 18.1287842,105.510254 C19.1168262,107.266773 20.4890863,108.584143 22.2456055,109.462402 L22.2456055,109.462402 Z M185.271729,32.3955078 L318.986084,100.570068 L183.625,173.355469 L49.9106445,100.570068 L185.271729,32.3955078 Z M344.675049,168.085938 L313.387207,152.277344 L290.991699,164.463135 L317.339355,177.966309 L181.978271,250.751709 L48.263916,177.966309 L76.2583008,163.804443 L53.862793,151.618652 L20.598877,168.085938 C18.8423578,168.964197 17.4700977,170.226676 16.4820557,171.873413 C15.4940136,173.52015 15,175.331533 15,177.307617 C15,179.283701 15.4940136,181.149975 16.4820557,182.906494 C17.4700977,184.663013 18.732577,185.980383 20.2695312,186.858643 L176.70874,272.15918 C177.587,272.598309 178.465246,272.927652 179.343506,273.147217 C180.221765,273.366782 181.100012,273.476562 181.978271,273.476562 C182.856531,273.476562 183.679887,273.366782 184.448364,273.147217 C185.216841,272.927652 186.040197,272.598309 186.918457,272.15918 L345.004395,186.858643 C346.760914,185.980383 348.133174,184.663013 349.121216,182.906494 C350.109258,181.149975 350.603271,179.283701 350.603271,177.307617 C350.603271,175.551098 350.054367,173.794605 348.956543,172.038086 C347.858718,170.281567 346.431568,168.964197 344.675049,168.085938 L344.675049,168.085938 Z M344.675049,241.859375 L315.033936,227.368164 L292.638428,239.553955 L317.339355,251.739746 L181.978271,324.525146 L48.263916,251.739746 L74.2822266,239.883301 L51.8867188,227.69751 L20.598877,241.859375 C18.8423578,242.737635 17.4700977,244.000114 16.4820557,245.646851 C15.4940136,247.293587 15,249.104971 15,251.081055 C15,253.057139 15.4940136,254.923412 16.4820557,256.679932 C17.4700977,258.436451 18.732577,259.75382 20.2695312,260.63208 L176.70874,345.932617 C177.587,346.371747 178.465246,346.701089 179.343506,346.920654 C180.221765,347.140219 181.100012,347.25 181.978271,347.25 C182.856531,347.25 183.679887,347.140219 184.448364,346.920654 C185.216841,346.701089 186.040197,346.371747 186.918457,345.932617 L345.004395,260.63208 C346.760914,259.75382 348.133174,258.436451 349.121216,256.679932 C350.109258,254.923412 350.603271,253.057139 350.603271,251.081055 C350.603271,249.324535 350.054367,247.568043 348.956543,245.811523 C347.858718,244.055004 346.431568,242.737635 344.675049,241.859375 L344.675049,241.859375 Z" id="layers---simple-line-icons"></path>
                </g>
            </g>
        </g>
    </g>
</svg>