<?xml version="1.0" encoding="UTF-8"?>
<svg width="354px" height="354px" viewBox="0 0 354 354" version="1.1" xmlns="http://www.w3.org/2000/svg" xmlns:xlink="http://www.w3.org/1999/xlink">
    <!-- Generator: Sketch 40.1 (33804) - http://www.bohemiancoding.com/sketch -->
    <title>Settings - simple-line-icons</title>
    <desc>Created with Sketch.</desc>
    <defs></defs>
    <g id="Homepage" stroke="none" stroke-width="1" fill="none" fill-rule="evenodd" opacity="0.648903918">
        <g id="Tablet-Portrait" transform="translate(-14.000000, -883.000000)" fill="#FFFFFF">
            <g id="What-we-do" transform="translate(-1.000000, 385.000000)">
                <g id="Service-3" transform="translate(0.000000, 488.000000)">
                    <path d="M346.875,153.466797 L318.527344,147.244141 C317.605464,143.556622 316.395515,140.042009 314.897461,136.700195 C313.399407,133.358382 311.843758,130.074235 310.230469,126.847656 L325.441406,101.265625 C328.437515,96.656227 330.281247,91.3554987 330.972656,85.3632812 C331.664066,79.3710638 329.820334,74.1855688 325.441406,69.8066406 L309.884766,54.25 C305.505837,49.8710719 300.205109,47.8544905 293.982422,48.2001953 C287.759735,48.5459002 282.343773,50.2167819 277.734375,53.2128906 L252.84375,69.1152344 C249.617171,67.5019451 246.333025,66.0039132 242.991211,64.6210938 C239.649397,63.2382743 236.250017,61.9707089 232.792969,60.8183594 L226.570312,31.7792969 C225.417963,26.708959 222.767599,21.8115471 218.619141,17.0869141 C214.470682,12.3622811 209.285187,10 203.0625,10 L180.9375,10 C174.714813,10 169.759784,12.3622811 166.072266,17.0869141 C162.384747,21.8115471 159.96485,26.8241922 158.8125,32.125 L151.552734,60.4726562 C147.865216,61.6250058 144.235369,62.9501878 140.663086,64.4482422 C137.090802,65.9462966 133.576189,67.6171783 130.119141,69.4609375 L104.537109,53.2128906 C100.158181,50.2167819 94.7998364,48.5459002 88.4619141,48.2001953 C82.1239917,47.8544905 76.8808801,49.8710719 72.7324219,54.25 L56.8300781,69.8066406 C52.6816199,74.1855688 50.9531215,79.3710638 51.6445312,85.3632812 C52.335941,91.3554987 54.0644393,96.656227 56.8300781,101.265625 L73.078125,128.230469 C71.6953056,131.226577 70.3125069,134.337874 68.9296875,137.564453 C67.5468681,140.791032 66.3945359,144.017562 65.4726562,147.244141 L37.125,153.466797 C31.8241922,154.388676 26.8115471,156.981424 22.0869141,161.245117 C17.3622811,165.50881 15,170.751922 15,176.974609 L15,199.099609 C15,205.091827 17.3622811,209.931622 22.0869141,213.619141 C26.8115471,217.306659 31.8241922,219.84179 37.125,221.224609 L65.8183594,228.138672 C66.740239,231.365251 67.8349546,234.418931 69.1025391,237.299805 C70.3701235,240.180678 71.6953056,243.003892 73.078125,245.769531 L56.8300781,272.734375 C54.0644393,277.343773 52.335941,282.644501 51.6445312,288.636719 C50.9531215,294.628936 52.6816199,299.814431 56.8300781,304.193359 L72.7324219,319.75 C76.8808801,324.128928 82.1239917,326.14551 88.4619141,325.799805 C94.7998364,325.4541 100.158181,323.783218 104.537109,320.787109 L130.119141,304.539062 C133.576189,306.382822 137.148419,308.053703 140.835938,309.551758 C144.523456,311.049812 148.210919,312.374994 151.898438,313.527344 L158.8125,341.875 C160.195319,347.175808 162.73045,352.188453 166.417969,356.913086 C170.105487,361.637719 174.945283,364 180.9375,364 L203.0625,364 C209.285187,364 214.528299,361.637719 218.791992,356.913086 C223.055685,352.188453 225.648433,347.175808 226.570312,341.875 L232.792969,313.181641 C236.480487,312.029291 239.937484,310.761726 243.164062,309.378906 C246.390641,307.996087 249.617171,306.498055 252.84375,304.884766 L277.734375,320.787109 C282.343773,323.783218 287.759735,325.4541 293.982422,325.799805 C300.205109,326.14551 305.505837,324.128928 309.884766,319.75 L325.441406,304.193359 C329.820334,299.814431 331.664066,294.628936 330.972656,288.636719 C330.281247,282.644501 328.437515,277.343773 325.441406,272.734375 L310.230469,247.152344 C311.843758,244.156235 313.284173,241.102555 314.551758,237.991211 C315.819342,234.879867 317.029291,231.59572 318.181641,228.138672 L346.875,221.224609 C352.175808,219.84179 357.188453,217.306659 361.913086,213.619141 C366.637719,209.931622 369,205.091827 369,199.099609 L369,176.974609 C369,170.751922 366.637719,165.50881 361.913086,161.245117 C357.188453,156.981424 352.175808,154.388676 346.875,153.466797 L346.875,153.466797 Z M346.875,197.371094 C346.41406,197.832034 345.780277,198.23535 344.973633,198.581055 C344.166988,198.92676 343.187506,199.214843 342.035156,199.445312 L300.896484,209.816406 L297.09375,221.224609 C296.17187,223.990248 295.192388,226.698229 294.155273,229.348633 C293.118159,231.999037 291.90821,234.591784 290.525391,237.126953 L284.994141,248.189453 L306.773438,284.142578 C307.464847,285.294928 307.983397,286.332027 308.329102,287.253906 C308.674806,288.175786 308.847656,288.982418 308.847656,289.673828 L294.328125,304.193359 C293.636715,303.962889 292.945316,303.674806 292.253906,303.329102 C291.562497,302.983397 290.98633,302.695314 290.525391,302.464844 L254.226563,279.302734 L242.818359,285.179688 C240.052721,286.562507 237.287123,287.830072 234.521484,288.982422 C231.755846,290.134771 228.990248,291.17187 226.224609,292.09375 L214.125,296.242188 L205.136719,337.380859 C204.906249,338.302739 204.502933,339.224605 203.926758,340.146484 C203.350583,341.068364 202.947267,341.64453 202.716797,341.875 L182.666016,341.875 C182.205076,341.41406 181.80176,340.780277 181.456055,339.973633 C181.11035,339.166988 180.822267,338.187506 180.591797,337.035156 L170.220703,296.242188 L158.466797,292.439453 C155.470688,291.517574 152.474624,290.422858 149.478516,289.155273 C146.482407,287.887689 143.486343,286.447274 140.490234,284.833984 L129.082031,278.957031 L92.7832031,302.119141 C92.0917934,302.58008 91.3427775,302.983397 90.5361328,303.329102 C89.7294882,303.674806 88.9804722,303.847656 88.2890625,303.847656 L73.7695312,289.673828 C73.7695312,288.982418 73.9423811,288.175786 74.2880859,287.253906 C74.6337908,286.332027 75.1523403,285.410161 75.84375,284.488281 L98.3144531,246.806641 L93.1289062,236.089844 C91.7460868,233.554675 90.536138,231.077161 89.4990234,228.657227 C88.4619089,226.237293 87.5976597,223.875012 86.90625,221.570313 L83.1035156,209.816406 L42.65625,199.445312 C41.2734306,199.214843 40.1210984,198.92676 39.1992188,198.581055 C38.2773391,198.23535 37.5859398,197.832034 37.125,197.371094 L37.125,176.974609 L37.125,176.974609 C37.3554699,176.974609 37.8740194,176.744143 38.6806641,176.283203 C39.4873087,175.822263 40.2363247,175.476564 40.9277344,175.246094 L82.7578125,165.912109 L86.5605469,153.8125 C87.2519566,151.277331 88.1162058,148.7422 89.1533203,146.207031 C90.1904349,143.671862 91.4003837,140.906265 92.7832031,137.910156 L98.3144531,127.193359 L75.84375,89.8574219 C75.1523403,88.7050724 74.6337908,87.6679734 74.2880859,86.7460938 C73.9423811,85.8242141 73.7695312,85.0175816 73.7695312,84.3261719 L88.2890625,69.8066406 C88.9804722,70.0371105 89.6718715,70.3251936 90.3632812,70.6708984 C91.054691,71.0166033 91.6308571,71.3046863 92.0917969,71.5351562 L129.082031,95.0429688 L140.490234,89.1660156 C143.486343,87.5527263 146.482407,86.112311 149.478516,84.8447266 C152.474624,83.5771421 155.470688,82.4824265 158.466797,81.5605469 L170.220703,77.7578125 L180.246094,37.65625 C180.476564,36.2734306 180.822263,35.1210984 181.283203,34.1992188 C181.744143,33.2773391 182.205076,32.5859398 182.666016,32.125 L203.0625,32.125 C203.0625,32.125 203.292966,32.5283163 203.753906,33.3349609 C204.214846,34.1416056 204.560546,35.0058548 204.791016,35.9277344 L213.779297,77.7578125 L225.878906,81.90625 C228.875015,82.5976597 231.755846,83.5771421 234.521484,84.8447266 C237.287123,86.112311 240.052721,87.4374931 242.818359,88.8203125 L254.226563,94.6972656 L289.833984,71.8808594 C290.525394,71.4199196 291.27441,71.0742199 292.081055,70.84375 C292.887699,70.6132801 293.636715,70.4980469 294.328125,70.4980469 L308.847656,84.671875 C308.847656,85.1328148 308.674806,85.8242141 308.329102,86.7460938 C307.983397,87.6679734 307.464847,88.5898391 306.773438,89.5117188 L284.994141,125.810547 L290.525391,136.873047 C292.13868,139.869156 293.521479,142.749986 294.673828,145.515625 C295.826178,148.281264 296.748043,151.046861 297.439453,153.8125 L301.242188,165.912109 L342.380859,175.246094 C343.533209,175.476564 344.570308,175.87988 345.492188,176.456055 C346.414067,177.032229 346.990233,177.435546 347.220703,177.666016 L346.875,197.371094 Z M192,120.625 C173.792878,120.625 158.178776,127.07806 145.157227,139.984375 C132.135677,152.89069 125.625,168.562408 125.625,187 C125.625,205.437592 132.135677,221.10931 145.157227,234.015625 C158.178776,246.92194 173.792878,253.375 192,253.375 C210.437592,253.375 226.166927,246.92194 239.188477,234.015625 C252.210026,221.10931 258.720703,205.437592 258.720703,187 C258.720703,168.562408 252.210026,152.89069 239.188477,139.984375 C226.166927,127.07806 210.437592,120.625 192,120.625 L192,120.625 Z M192,231.25 C179.785095,231.25 169.356489,226.928754 160.713867,218.286133 C152.071246,209.643511 147.75,199.214905 147.75,187 C147.75,174.785095 152.071246,164.356489 160.713867,155.713867 C169.356489,147.071246 179.785095,142.75 192,142.75 C204.214905,142.75 214.643511,147.071246 223.286133,155.713867 C231.928754,164.356489 236.25,174.785095 236.25,187 C236.25,199.214905 231.928754,209.643511 223.286133,218.286133 C214.643511,226.928754 204.214905,231.25 192,231.25 L192,231.25 Z" id="Settings---simple-line-icons"></path>
                </g>
            </g>
        </g>
    </g>
</svg>