<?xml version="1.0" encoding="UTF-8"?>
<svg width="22px" height="22px" viewBox="0 0 22 22" version="1.1" xmlns="http://www.w3.org/2000/svg" xmlns:xlink="http://www.w3.org/1999/xlink">
    <g id="Homepage" stroke="none" stroke-width="1" fill="none" fill-rule="evenodd">
        <g id="button" transform="translate(-142.000000, -15.000000)" fill="#FFFFFF">
            <g id="chat---materialicons-regular">
                <path d="M159.002319,21.675 L159.002319,19.533 L146.248696,19.533 L146.248696,21.675 L159.002319,21.675 Z M154.768116,28.05 L154.768116,25.908 L146.248696,25.908 L146.248696,28.05 L154.768116,28.05 Z M146.248696,22.7205 L146.248696,24.8625 L159.002319,24.8625 L159.002319,22.7205 L146.248696,22.7205 Z M161.144928,15.3 C161.723095,15.3 162.21623,15.503998 162.624348,15.912 C163.032466,16.320002 163.236522,16.8129971 163.236522,17.391 L163.236522,30.141 C163.236522,30.7190029 163.032466,31.2204979 162.624348,31.6455 C162.21623,32.0705021 161.723095,32.283 161.144928,32.283 L146.248696,32.283 L142.014493,36.516 L142.014493,17.391 C142.014493,16.8129971 142.218549,16.320002 142.626667,15.912 C143.034785,15.503998 143.52792,15.3 144.106087,15.3 L161.144928,15.3 Z"></path>
            </g>
        </g>
    </g>
</svg>